<!-- firebase-logo.svg -->
<svg xmlns="http://www.w3.org/2000/svg" viewBox="0 0 128 128" width="128" height="128" aria-hidden="true" role="img">
  <defs>
    <linearGradient id="g1" x1="0.1" x2="0.9" y1="0" y2="1">
      <stop offset="0%" stop-color="#FFA000"></stop>
      <stop offset="40%" stop-color="#FFB300"></stop>
      <stop offset="100%" stop-color="#FF6D00"></stop>
    </linearGradient>
    <linearGradient id="g2" x1="0" x2="1" y1="0" y2="1">
      <stop offset="0%" stop-color="#FFF3B0" stop-opacity="0.95"></stop>
      <stop offset="100%" stop-color="#FFC107" stop-opacity="0.95"></stop>
    </linearGradient>
  </defs>

  <!-- outer flame -->
  <path fill="url(#g1)" d="M64 6c8 16 22 28 30 44 3 7 4 15 2 23-3 14-12 26-26 32-9 4-18 3-27 0-9-3-18-8-25-15 8 1 16-1 23-5 8-5 14-12 19-20 5-8 6-17 4-26C63 43 60 30 64 6z"></path>

  <!-- inner highlight -->
  <path fill="url(#g2)" d="M62 18c6 12 12 23 12 37 0 6-3 12-6 17-4 6-9 11-15 15-6 3-13 4-20 3 6-4 11-9 15-15 5-7 7-15 6-23-1-9-4-18-2-27 4 6 7 8 10 0z" opacity="0.95"></path>

  <!-- small lower spark -->
  <path fill="#FFB74D" d="M42 96c3 1 6 1 9 0-3 2-6 3-9 3s-6-1-9-3c3 1 6 1 9 0z" opacity="0.9"></path>
</svg>
